<svg width="228" height="22" viewBox="0 0 228 22" fill="none" xmlns="http://www.w3.org/2000/svg">
<path d="M23.244 21L24.364 15.12H10.448L13.192 1.008H4.792L0.928 21H23.244ZM42.0495 1.008L36.2255 8.036L33.0895 1.008H23.7095L30.9895 14.672L29.7575 21H38.1575L39.3895 14.672L51.9335 1.008H42.0495ZM78.6326 1.008H54.6086L53.4606 7H61.2726L58.5566 21H66.9566L69.6726 7H77.4846L78.6326 1.008ZM89.9907 6.104H104.243L105.223 1.008H82.5707L78.7067 21H101.527L102.479 15.988H88.0587L88.5907 13.244H102.115L103.039 8.624H89.5147L89.9907 6.104ZM124.739 7H134.091C134.119 6.804 134.119 6.608 134.119 6.412C134.119 1.764 129.191 0.251998 121.911 0.251998C115.415 0.251998 112.475 1.204 110.515 2.8C109.059 3.976 108.191 5.684 108.191 7.756C108.191 11.452 111.355 12.824 115.163 13.244L121.239 13.916C123.003 14.112 123.535 14.476 123.535 15.12C123.535 15.372 123.423 15.792 122.975 16.072C122.499 16.38 121.575 16.548 119.643 16.548C117.039 16.548 115.611 16.184 115.807 14.42H106.287C106.259 14.756 106.231 15.092 106.231 15.4C106.231 20.3 110.795 21.756 119.027 21.756C126.279 21.756 128.799 20.944 130.619 19.684C132.747 18.228 133.475 15.624 133.475 13.916C133.475 10.444 130.703 8.652 126.559 8.288L120.035 7.7C118.327 7.532 117.823 7.28 117.823 6.664C117.823 6.3 118.047 5.992 118.355 5.796C118.999 5.376 120.007 5.292 121.407 5.292C123.843 5.292 124.795 5.964 124.739 7ZM158.282 1.008L156.266 11.48H156.098L149.462 1.008H140.138L136.274 21H144.17L146.214 10.416H146.382L153.102 21H162.314L166.178 1.008H158.282ZM187.038 21H195.718L189.866 1.008H178.834L165.422 21H174.718L176.314 18.48H186.366L187.038 21ZM179.618 13.272L183.314 7.504H183.482L184.994 13.272H179.618ZM219.37 1.008H202.682L198.818 21H207.218L208.31 15.344H217.046C221.106 15.344 223.57 14.42 225.11 12.908C226.65 11.368 227.238 9.212 227.238 6.552C227.238 2.856 224.998 1.008 219.37 1.008ZM215.254 10.136H209.318L210.046 6.44H215.982C217.438 6.44 217.97 6.888 217.97 7.784C217.97 8.232 217.858 8.764 217.494 9.24C217.13 9.716 216.486 10.136 215.254 10.136Z" fill="white"/>
</svg>
